# AST/ASF file generated using VICON BodyLanguage
# -----------------------------------------------
:version 1.10
:name VICON
:units
  mass 1.0
  length 0.45
  angle deg
:documentation
   .ast/.asf automatically generated from VICON data using
   VICON BodyBuilder and BodyLanguage model FoxedUp or BRILLIANT.MOD
:root
   order TX TY TZ RX RY RZ
   axis XYZ
   position 0 0 0  
   orientation 0 0 0 
:bonedata
  begin
     id 1 
     name lhipjoint
     direction 0.702568 -0.596508 0.388042 
     length 2.56661 
     axis 0 0 0  XYZ
  end
  begin
     id 2 
     name lfemur
     direction 0.34202 -0.939693 0  
     length 6.58374  
     axis 0 0 20  XYZ
    dof rx ry rz
    limits (-160.0 20.0)
           (-70.0 70.0)
           (-60.0 70.0)
  end
  begin
     id 3 
     name ltibia
     direction 0.34202 -0.939693 0   
     length 6.62538   
     axis 0 0 20   XYZ
    dof rx
    limits (-10.0 170.0)
  end
  begin
     id 4 
     name lfoot
     direction 0.10455 -0.287249 0.952133   
     length 2.26699   
     axis -90 7.62852e-016 20   XYZ
    dof rx rz
    limits (-45.0 90.0)
           (-70.0 20.0)
  end
  begin
     id 5 
     name ltoes
     direction 1.53572e-011 -4.22322e-011 1   
     length 1.12949   
     axis -90 7.62852e-016 20   XYZ
    dof rx
    limits (-90.0 20.0)
  end
  begin
     id 6 
     name rhipjoint
     direction -0.728055 -0.574632 0.373811   
     length 2.66432  
     axis 0 0 0  XYZ 
  end
  begin
     id 7 
     name rfemur
     direction -0.34202 -0.939693 0   
     length 6.66732   
     axis 0 0 -20   XYZ
    dof rx ry rz
    limits (-160.0 20.0)
           (-70.0 70.0)
           (-70.0 60.0)
  end
  begin
     id 8 
     name rtibia
     direction -0.34202 -0.939693 0   
     length 6.59288   
     axis 0 0 -20   XYZ
    dof rx
    limits (-10.0 170.0)
 end
 begin
     id 9 
     name rfoot
     direction -0.119193 -0.327479 0.93731   
     length 2.38061  
     axis -90 -7.62852e-016 -20   XYZ
    dof rx rz
    limits (-45.0 90.0)
           (-20.0 70.0)
  end
  begin
     id 10 
     name rtoes
     direction -1.53547e-011 -4.21827e-011 1   
     length 1.17899   
     axis -90 -7.62852e-016 -20   XYZ
    dof rx
    limits (-90.0 20.0)
  end
  begin
     id 11 
     name lowerback
     direction -0.000416114 0.999912 -0.0132284   
     length 2.12109   
     axis 0 0 0   XYZ
    dof rx ry rz
    limits (-20.0 45.0)
           (-30.0 30.0)
           (-30.0 30.0)
  end
  begin
     id 12 
     name upperback
     direction -0.00136371 0.99809 0.0617608   
     length 2.10067   
     axis 0 0 0   XYZ
    dof rx ry rz
    limits (-20.0 45.0)
           (-30.0 30.0)
           (-30.0 30.0)
  end
  begin
     id 13 
     name thorax
     direction -3.43026e-005 0.997776 0.0666515   
     length 2.10618   
     axis 0 0 0   XYZ
    dof rx ry rz
    limits (-20.0 45.0)
           (-30.0 30.0)
           (-30.0 30.0)
  end
  begin
     id 14 
     name lowerneck
     direction 0.0398646 0.998418 0.0396592   
     length 1.83817   
     axis 0 0 0   XYZ
    dof rx ry rz
    limits (-20.0 45.0)
           (-30.0 30.0)
           (-30.0 30.0)
  end
  begin
     id 15 
     name upperneck
     direction -0.0367268 0.961527 -0.272244   
     length 1.81975   
     axis 0 0 0   XYZ
    dof rx ry rz
    limits (-20.0 45.0)
           (-30.0 30.0)
           (-30.0 30.0)
  end
  begin
     id 16
     name head
     direction -0.0182665 0.99536 -0.0944669  
     length 1.86026  
     axis 0 0 0   XYZ
    dof rx ry rz
    limits (-20.0 45.0)
           (-30.0 30.0)
           (-30.0 30.0)
  end
  begin
     id 17 
     name lclavicle
     direction 0.924239 0.361045 0.124212  
     length 3.26878  
     axis 0 0 0   XYZ
    dof ry rz
    limits (-20.0 10.0)
           (0.0 20.0)
  end
  begin
     id 18 
     name lhumerus
     direction 1 -4.48968e-011 -2.56583e-027   
     length 4.58538   
     axis 180 -30 -90   XYZ
    dof rx ry rz
    limits (-60.0 90.0)
           (-90.0 90.0)
           (-90.0 90.0)
  end
  begin
     id 19
     name lradius
     direction 1 -4.4898e-011 -5.50375e-027   
     length 2.68935   
     axis 180 -30 -90   XYZ
    dof rx
    limits (-10.0 170.0)
  end
  begin
     id 20
     name lwrist
     direction 1 -4.48939e-011 -1.48955e-026   
     length 1.34468   
     axis 9.0955e-015 90 90   XYZ
    dof ry
    limits (-180.0 0.0)
 end
  begin
     id 21 
     name lhand
     direction 1 -4.48936e-011 -2.97907e-026   
     length 0.585058   
     axis 1.90115e-014 90 90   XYZ
    dof rx rz
    limits (-90.0 90.0)
           (-45.0 45.0)
  end
  begin
     id 22 
     name lfingers
     direction 1 -4.49082e-011 -5.96235e-026   
     length 0.471689   
     axis 3.80223e-014 90 90   XYZ
    dof rx
    limits (0.0 90.0)
  end
  begin
     id 23
     name lthumb
     direction 0.707107 -6.3489e-011 0.707107   
     length 0.677253   
     axis -90 45 -3.84942e-014   XYZ
    dof rx rz
    limits (-45.0 45.0)
           (-45.0 45.0)
  end
  begin
     id 24 
     name rclavicle
     direction -0.923098 0.371783 0.0983239   
     length 3.19656  
     axis 0 0 0   XYZ 
    dof ry rz
    limits (-10.0 20.0)
           (-20.0 0.0)
  end
  begin
     id 25 
     name rhumerus
     direction -1 -4.48976e-011 -2.5492e-027  
     length 4.4745   
     axis 180 30 90   XYZ
    dof rx ry rz
    limits (-90.0 60.0)
           (-90.0 90.0)
           (-90.0 90.0)
  end
  begin
     id 26 
     name rradius
     direction -1 -4.48941e-011 -4.36555e-027   
     length 2.93896   
     axis 180 30 90   XYZ
    dof rx
    limits (-10.0 170.0)
  end
  begin
     id 27 
     name rwrist
     direction -1 -4.49044e-011 -1.49032e-026   
     length 1.46948   
     axis 9.0955e-015 -90 -90   XYZ
    dof ry
    limits (-180.0 0.0)
  end
  begin
     id 28
     name rhand
     direction -1 -4.48826e-011 -2.97749e-026   
     length 0.405092   
     axis 1.90115e-014 -90 -90   XYZ
    dof rx rz
    limits (-90.0 90.0)
           (-45.0 45.0)
  end
  begin
     id 29
     name rfingers
     direction -1 -4.49209e-011 -5.96602e-026   
     length 0.326596   
     axis 3.80223e-014 -90 -90   XYZ
    dof rx
    limits (0.0 90.0)
  end
  begin
     id 30
     name rthumb
     direction -0.707107 -6.34776e-011 0.707107   
     length 0.468928   
     axis -90 -45 3.84942e-014   XYZ
    dof rx rz
    limits (-45.0 45.0)
           (-45.0 45.0)
  end
:hierarchy
  begin
    root lhipjoint rhipjoint lowerback
    lhipjoint lfemur
    lfemur ltibia
    ltibia lfoot
    lfoot ltoes
    rhipjoint rfemur
    rfemur rtibia
    rtibia rfoot
    rfoot rtoes
    lowerback upperback
    upperback thorax
    thorax lowerneck lclavicle rclavicle
    lowerneck upperneck
    upperneck head
    lclavicle lhumerus
    lhumerus lradius
    lradius lwrist
    lwrist lhand lthumb
    lhand lfingers
    rclavicle rhumerus
    rhumerus rradius
    rradius rwrist
    rwrist rhand rthumb
    rhand rfingers
  end

#!OML:ASF H:\Punching\Project 1\Capture day 1\Session 1\female.ASF
:FULLY-SPECIFIED
:DEGREES
751
root -1.90426 15.7165 7.66858 13.6146 -3.72057 1.85868
lowerback -2.30342 -0.417419 1.59907
upperback -6.48715 -0.596611 -1.05118
thorax -5.45107 -0.413773 -1.97008
lowerneck -5.93095 8.42417 15.1559
upperneck 23.7504 12.1497 -10.6025
head 10.1121 6.02466 -4.88604
rclavicle -3.08951e-015 -1.02871e-014
rhumerus -40.3613 11.4789 -89.5975
rradius 46.5237
rwrist -2.04127
rhand -9.16208 -9.37743
rfingers 7.12502
rthumb 16.7904 -38.6714
lclavicle -3.08951e-015 -1.02871e-014
lhumerus -48.6444 -1.4639 82.6423
lradius 51.8663
lwrist -2.80212
lhand -6.68946 16.4238
lfingers 7.12502
lthumb 19.1695 45.499
rfemur -16.9789 5.31257 17.3981
rtibia 28.9635
rfoot -22.1312 -20.81
rtoes -0.45929
lfemur -21.4475 -4.71608 -13.7242
ltibia 31.6282
lfoot -15.6799 11.7153
ltoes -10.3579
752
root -1.89541 15.7159 7.65524 13.6795 -3.65593 1.8777
lowerback -2.46492 -0.401935 1.64003
upperback -6.54651 -0.575886 -1.01333
thorax -5.42111 -0.404681 -1.95522
lowerneck -5.99718 8.40874 15.1469
upperneck 23.7512 12.1169 -10.5869
head 10.1184 6.00841 -4.88091
rclavicle -5.99848e-016 -1.89342e-014
rhumerus -40.8866 10.5413 -88.996
rradius 45.0105
rwrist -1.58902
rhand -9.42567 -9.81012
rfingers 7.12502
rthumb 16.5367 -39.1255
lclavicle -5.99848e-016 -1.89342e-014
lhumerus -49.5039 -0.280548 81.9956
lradius 49.772
lwrist -2.75026
lhand -8.03861 16.7401
lfingers 7.12502
lthumb 17.8717 45.9389
rfemur -17.1331 5.43136 17.3266
rtibia 29.0642
rfoot -22.1967 -20.882
rtoes -0.208835
lfemur -20.747 -4.77917 -14.1164
ltibia 31.7178
lfoot -15.9552 11.6493
ltoes -10.716
753
root -1.88536 15.7151 7.64296 13.7402 -3.59946 1.88768
lowerback -2.62066 -0.386574 1.67503
upperback -6.60518 -0.555167 -0.968659
thorax -5.39357 -0.395099 -1.92984
lowerneck -6.05397 8.39332 15.1439
upperneck 23.7461 12.0848 -10.5747
head 10.1215 5.99301 -4.87819
rclavicle -7.12363e-015 -8.39865e-015
rhumerus -41.362 9.54929 -88.3158
rradius 43.4075
rwrist -0.898299
rhand -9.73433 -10.0732
rfingers 7.12502
rthumb 16.2395 -39.4131
lclavicle -7.12363e-015 -8.39865e-015
lhumerus -50.2995 0.86272 81.2968
lradius 47.6054
lwrist -2.75915
lhand -9.21915 17.1008
lfingers 7.12502
lthumb 16.7355 46.3995
rfemur -17.2808 5.55902 17.2597
rtibia 29.1627
rfoot -22.2597 -20.9616
rtoes 0.0296076
lfemur -20.0098 -4.8658 -14.4906
ltibia 31.6576
lfoot -16.1955 11.7369
ltoes -11.0577
754
root -1.87383 15.7142 7.63388 13.7949 -3.55536 1.89497
lowerback -2.78277 -0.371223 1.69967
upperback -6.67152 -0.534489 -0.917113
thorax -5.37038 -0.384927 -1.89146
lowerneck -6.07504 8.37144 15.1352
upperneck 23.7372 12.0471 -10.5547
head 10.1146 5.9765 -4.87384
rclavicle -3.81107e-015 -5.96354e-016
rhumerus -41.8055 8.50211 -87.5526
rradius 41.7219
rwrist 0.0091978
rhand -10.089 -10.2502
rfingers 7.12502
rthumb 15.8979 -39.6176
lclavicle -3.81107e-015 -5.96354e-016
lhumerus -51.0694 2.00018 80.5274
lradius 45.3887
lwrist -2.88444
lhand -10.1751 17.4904
lfingers 7.12502
lthumb 15.815 46.8644
rfemur -17.4094 5.6692 17.1903
rtibia 29.2561
rfoot -22.3209 -21.0296
rtoes 0.213644
lfemur -19.2195 -4.98125 -14.8544
ltibia 31.4231
lfoot -16.4344 12.0123
ltoes -11.4203
755
root -1.86109 15.7134 7.62648 13.8539 -3.51892 1.89304
lowerback -2.95582 -0.355957 1.71898
upperback -6.73861 -0.513953 -0.858695
thorax -5.34169 -0.374299 -1.84297
lowerneck -6.08843 8.3494 15.1297
upperneck 23.7302 12.0089 -10.5312
head 10.1069 5.96066 -4.86913
rclavicle 5.28177e-015 1.45113e-014
rhumerus -42.1958 7.37623 -86.6917
rradius 39.9682
rwrist 1.10794
rhand -10.4519 -10.391
rfingers 7.12502
rthumb 15.5484 -39.7859
lclavicle 5.28177e-015 1.45113e-014
lhumerus -51.7828 3.12064 79.6887
lradius 43.1151
lwrist -3.11385
lhand -10.88 17.9342
lfingers 7.12502
lthumb 15.1361 47.3607
rfemur -17.5339 5.76789 17.1268
rtibia 29.3405
rfoot -22.3684 -21.0963
rtoes 0.337987
lfemur -18.3978 -5.13493 -15.1908
ltibia 30.9935
lfoot -16.6837 12.4826
ltoes -11.8084
756
root -1.84726 15.7126 7.62043 13.9171 -3.48535 1.88733
lowerback -3.13523 -0.342137 1.7277
upperback -6.81002 -0.495408 -0.795592
thorax -5.31396 -0.364028 -1.78361
lowerneck -6.09001 8.32546 15.1275
upperneck 23.7298 11.9677 -10.4997
head 10.0987 5.94487 -4.86305
rclavicle 7.45443e-017 -2.26615e-014
rhumerus -42.5426 6.15632 -85.7239
rradius 38.1639
rwrist 2.36421
rhand -10.8437 -10.4794
rfingers 7.12502
rthumb 15.1711 -39.9033
lclavicle 7.45443e-017 -2.26615e-014
lhumerus -52.453 4.23574 78.7667
lradius 40.804
lwrist -3.4947
lhand -11.312 18.4194
lfingers 7.12502
lthumb 14.72 47.8768
rfemur -17.6522 5.8575 17.0636
rtibia 29.4126
rfoot -22.406 -21.1637
rtoes 0.425112
lfemur -17.5553 -5.35028 -15.4962
ltibia 30.3465
lfoot -16.9523 13.1342
ltoes -12.1591
757
root -1.83236 15.7119 7.61589 13.9861 -3.45609 1.87735
lowerback -3.32444 -0.329228 1.72699
upperback -6.88523 -0.47816 -0.728134
thorax -5.2847 -0.353802 -1.71442
lowerneck -6.08432 8.3006 15.1293
upperneck 23.7404 11.9245 -10.4607
head 10.0926 5.92952 -4.8556
rclavicle -5.23052e-015 -6.75868e-015
rhumerus -42.8555 4.83394 -84.6443
rradius 36.3484
rwrist 3.72457
rhand -11.276 -10.5842
rfingers 7.12502
rthumb 14.7546 -40.0391
lclavicle -5.23052e-015 -6.75868e-015
lhumerus -53.094 5.36558 77.7426
lradius 38.4868
lwrist -4.10187
lhand -11.4595 18.9424
lfingers 7.12502
lthumb 14.5778 48.4101
rfemur -17.7672 5.93867 16.9996
rtibia 29.4752
rfoot -22.4403 -21.2222
rtoes 0.509902
lfemur -16.7066 -5.64299 -15.7643
ltibia 29.4716
lfoot -17.2518 13.9221
ltoes -12.3186
758
root -1.81657 15.711 7.6127 14.0579 -3.43175 1.86668
lowerback -3.52159 -0.318821 1.71201
upperback -6.95813 -0.464312 -0.657119
thorax -5.24854 -0.344332 -1.6335
lowerneck -6.08789 8.2782 15.1336
upperneck 23.7665 11.8824 -10.4135
head 10.0937 5.9153 -4.84529
rclavicle -1.01722e-014 -2.78299e-015
rhumerus -43.135 3.40196 -83.4431
rradius 34.5436
rwrist 5.18156
rhand -11.7488 -10.6375
rfingers 7.12502
rthumb 14.299 -40.1252
lclavicle -1.01722e-014 -2.78299e-015
lhumerus -53.712 6.53164 76.5953
lradius 36.1908
lwrist -5.01217
lhand -11.3276 19.4966
lfingers 7.12502
lthumb 14.7049 48.9551
rfemur -17.8802 6.01079 16.9317
rtibia 29.5372
rfoot -22.4832 -21.2667
rtoes 0.613296
lfemur -15.8701 -6.01913 -15.9958
ltibia 28.3683
lfoot -17.5575 14.794
ltoes -12.1678
